Coordinates
version=1
nRows=43
nColumns=12
inDegrees=yes

Units are S.I. units (second, meters, Newtons, ...)
Angles are in degrees

endheader
time	SC_y	SC_z	SC_x	AC_y	AC_z	AC_x	GH_y	GH_z	GH_yy	EL_x	PS_y
       0.0              -20.95          16.52          27.87          49.38           6.06          5.719         -12.94           74.8            5.9          91.24          47.54
   0.00306              -20.95          16.52          27.87          49.38          6.058          5.715         -12.94           74.8          5.915          91.23          47.55
  0.006121              -20.96          16.52          27.88          49.37          6.057          5.712         -12.94           74.8          5.931          91.22          47.56
  0.009181              -20.96          16.52          27.89          49.37          6.055          5.708         -12.94           74.8          5.947          91.21          47.57
   0.01224              -20.96          16.51           27.9          49.37          6.053          5.703         -12.94           74.8          5.965          91.19          47.58
    0.0153              -20.97          16.51           27.9          49.37          6.051          5.699         -12.94          74.79          5.985          91.18          47.59
   0.01836              -20.97          16.51          27.91          49.36          6.049          5.694         -12.94          74.79          6.005          91.16           47.6
   0.02142              -20.97          16.51          27.92          49.36          6.047          5.689         -12.94          74.79          6.027          91.15          47.61
   0.02448              -20.98          16.51          27.93          49.36          6.044          5.684         -12.94          74.79          6.051          91.13          47.62
   0.02754              -20.98          16.51          27.94          49.36          6.042          5.678         -12.94          74.78          6.076          91.11          47.64
    0.0306              -20.99           16.5          27.95          49.35          6.039          5.672         -12.94          74.78          6.103          91.09          47.65
   0.03366              -20.99           16.5          27.97          49.35          6.036          5.665         -12.94          74.78          6.132          91.07          47.67
   0.03672               -21.0           16.5          27.98          49.35          6.033          5.658         -12.94          74.77          6.163          91.05          47.68
   0.03978              -21.01           16.5           28.0          49.34          6.029           5.65         -12.94          74.77          6.197          91.02           47.7
   0.04284              -21.01          16.49          28.01          49.34          6.026          5.642         -12.94          74.76          6.234           91.0          47.72
    0.0459              -21.02          16.49          28.03          49.33          6.022          5.632         -12.94          74.76          6.274          90.97          47.74
   0.04897              -21.03          16.49          28.05          49.33          6.017          5.623         -12.94          74.76          6.317          90.94          47.77
   0.05203              -21.04          16.48          28.07          49.32          6.012          5.612         -12.94          74.75          6.364           90.9          47.79
   0.05509              -21.05          16.48          28.09          49.32          6.007            5.6         -12.94          74.74          6.415          90.87          47.82
   0.05815              -21.06          16.48          28.11          49.31          6.001          5.587         -12.94          74.74          6.472          90.82          47.85
   0.06121              -21.07          16.47          28.14           49.3          5.995          5.573         -12.94          74.73          6.533          90.78          47.88
   0.06427              -21.08          16.47          28.17           49.3          5.988          5.557         -12.94          74.72          6.601          90.73          47.92
   0.06733              -21.09          16.46           28.2          49.29           5.98           5.54         -12.94          74.71          6.677          90.67          47.96
   0.07039              -21.11          16.45          28.24          49.28          5.971           5.52         -12.94           74.7           6.76          90.61          48.01
   0.07345              -21.13          16.45          28.28          49.27          5.962          5.499         -12.94          74.69          6.852          90.55          48.06
   0.07651              -21.14          16.44          28.32          49.26          5.951          5.475         -12.94          74.68          6.956          90.47          48.11
   0.07957              -21.17          16.43          28.37          49.24          5.939          5.449         -12.94          74.67          7.071          90.39          48.17
   0.08263              -21.19          16.42          28.42          49.23          5.926          5.419         -12.94          74.65          7.201          90.29          48.24
   0.08569              -21.22          16.41          28.49          49.21          5.911          5.385         -12.94          74.64          7.348          90.19          48.32
   0.08875              -21.25          16.39          28.56          49.19          5.894          5.346         -12.94          74.62          7.515          90.06          48.41
   0.09181              -21.28          16.38          28.64          49.17          5.874          5.302         -12.93           74.6          7.706          89.93          48.52
   0.09487              -21.32          16.36          28.73          49.14          5.852          5.252         -12.93          74.57          7.925          89.77          48.63
   0.09793              -21.37          16.34          28.84          49.11          5.826          5.194         -12.93          74.54          8.177          89.58          48.77
     0.101              -21.42          16.32          28.97          49.08          5.795          5.126         -12.93          74.51          8.471          89.37          48.93
    0.1041              -21.49          16.29          29.11          49.04           5.76          5.047         -12.93          74.47          8.814          89.12          49.11
    0.1071              -21.56          16.26          29.29          48.99          5.718          4.954         -12.93          74.42          9.218          88.82          49.33
    0.1102              -21.65          16.23          29.49          48.94          5.669          4.843         -12.92          74.37          9.699          88.47          49.59
    0.1132              -21.76          16.18          29.74          48.87          5.609           4.71         -12.92           74.3          10.28          88.05           49.9
    0.1163              -21.88          16.13          30.04          48.79          5.538          4.549         -12.92          74.22          10.97          87.55          50.28
    0.1194              -22.04          16.06           30.4          48.69           5.45          4.353         -12.91          74.12          11.83          86.93          50.74
    0.1224              -22.23          15.98          30.85          48.57          5.342          4.111         -12.91           74.0          12.88          86.16           51.3
    0.1255              -22.48          15.88          31.41          48.42          5.207          3.809          -12.9          73.85          14.19          85.21          52.01
    0.1285              -22.78          15.75          32.12          48.23          5.037          3.428         -12.89          73.67          15.84           84.0           52.9
